<svg enable-background="new 67 -175.7 976 945" viewBox="67 -175.7 976 945" xmlns="http://www.w3.org/2000/svg"><g fill="#fff"><path d="m940.5 233.3c-45.8-32.8-155.5-56-155.5-56-44.5-205.5-200.4-197.7-200.4-197.7s-158-8-202.5 197.5c0 0-109.8 23.3-155.5 56 0 0-53.5 36 8.8 92.7l72 58s-105.7 195.7-6 244.7c0 0 55.3 32.7 95.3-33.3l106-20.3s35.6 65.6 82.9 61.9c47.3 3.8 78.7-61.8 78.7-61.8l106 20.3c40 66 95.3 33.3 95.3 33.3 99.7-49-6-244.7-6-244.7l72-58c62.4-56.6 8.9-92.6 8.9-92.6zm-120 133.1-77.3 50.7 38.7-97.5zm-145.5-161 76.7 89-57.3 146-108.9 60.5-.3.2-102.8-61.3-64-148 86-86.3h170.6zm-140.3-36.3 48.3-43.8 1.9 1.8 44.1 41.9h-94.3zm227.1 77.7-37.3-41.3 37.3 6zm-13.6-77.7h-58l-71.5-67 62.5-40.5c55.5 44.7 67 107.5 67 107.5zm-163.5-153.5c20.1-.7 42.8 3.9 65 20l-64 45-.9-.6-64.1-44.4s27.6-18.8 64-20zm-94 46 62.5 40.5-71.5 67h-58s11.5-62.8 67-107.5zm-79 149.8 37.3-6-37.3 41.3zm18.6 205.7-77.3-50.7 38.7-46.8zm-176.3-138.3s-12-12.8 16.3-27.3c0 0 41.3-19.2 98.3-35l14 68.3s-38.2 35.5-54.3 61c0 0-27.5-15.9-74.3-67zm142.4 283.8s-.8-31.9-39-50.5c0 0-31.1-8.3-59.3 9.5 0 0 14.4-66 43.3-119.3l114 68.3 36.3 75zm129.8-28.5-24-44 55.3 32zm62.1 71.3c-.9-.4-1.8-.8-2.7-1.3-16-8.8-39.6-38.7-39.6-38.7 24.3-8.5 35.1-15.2 39.5-18.7 2.2-1.7 2.8-2.6 2.8-2.6s6.2 8.7 42.3 21.3c.1 0-26.4 33.5-42.3 40zm64-71.3-31.3-12 55.3-32zm224.6-12.5c-28.1-17.8-59.3-9.5-59.3-9.5-38.3 18.6-39 50.5-39 50.5l-95.3-17 36.3-75 114-68.3c28.9 53.3 43.3 119.3 43.3 119.3zm45.2-242.8c-46.8 51.2-74.3 67-74.3 67-16.2-25.5-54.3-61-54.3-61l14-68.3c57 15.8 98.3 35 98.3 35 28.3 14.4 16.3 27.3 16.3 27.3z"/><circle cx="588" cy="309.4" r="70.3"/></g></svg>